<svg xmlns="http://www.w3.org/2000/svg" viewBox="0 0 64 64">
  <defs>
    <linearGradient id="bg" x1="0%" y1="0%" x2="100%" y2="100%">
      <stop offset="0%" style="stop-color:#1e293b"/>
      <stop offset="100%" style="stop-color:#0f172a"/>
    </linearGradient>
    <linearGradient id="shield" x1="0%" y1="0%" x2="100%" y2="100%">
      <stop offset="0%" style="stop-color:#6366f1"/>
      <stop offset="100%" style="stop-color:#4f46e5"/>
    </linearGradient>
    <linearGradient id="bolt" x1="0%" y1="0%" x2="0%" y2="100%">
      <stop offset="0%" style="stop-color:#fbbf24"/>
      <stop offset="100%" style="stop-color:#f59e0b"/>
    </linearGradient>
  </defs>
  <rect width="64" height="64" rx="14" fill="url(#bg)"/>
  <!-- Shield -->
  <path d="M32 8 L50 18 L50 34 C50 44 42 52 32 56 C22 52 14 44 14 34 L14 18 Z" fill="url(#shield)" opacity="0.9"/>
  <path d="M32 12 L46 20 L46 33 C46 42 39 49 32 52 C25 49 18 42 18 33 L18 20 Z" fill="url(#bg)" opacity="0.7"/>
  <!-- Lightning bolt -->
  <path d="M35 20 L27 34 L33 34 L29 46 L39 30 L33 30 Z" fill="url(#bolt)"/>
  <!-- Lock keyhole -->
  <circle cx="32" cy="38" r="2.5" fill="#94a3b8"/>
  <rect x="31" y="38" width="2" height="4" rx="1" fill="#94a3b8"/>
</svg>
