<svg xmlns="http://www.w3.org/2000/svg" viewBox="0 0 192 192">
  <defs>
    <linearGradient id="bg2" x1="0%" y1="0%" x2="100%" y2="100%">
      <stop offset="0%" style="stop-color:#1e293b"/>
      <stop offset="100%" style="stop-color:#0f172a"/>
    </linearGradient>
    <linearGradient id="shield2" x1="0%" y1="0%" x2="100%" y2="100%">
      <stop offset="0%" style="stop-color:#6366f1"/>
      <stop offset="100%" style="stop-color:#4f46e5"/>
    </linearGradient>
    <linearGradient id="bolt2" x1="0%" y1="0%" x2="0%" y2="100%">
      <stop offset="0%" style="stop-color:#fbbf24"/>
      <stop offset="100%" style="stop-color:#f59e0b"/>
    </linearGradient>
  </defs>
  <rect width="192" height="192" rx="42" fill="url(#bg2)"/>
  <path d="M96 24 L150 54 L150 102 C150 132 126 156 96 168 C66 156 42 132 42 102 L42 54 Z" fill="url(#shield2)" opacity="0.9"/>
  <path d="M96 36 L138 60 L138 99 C138 126 117 147 96 156 C75 147 54 126 54 99 L54 60 Z" fill="url(#bg2)" opacity="0.7"/>
  <path d="M105 60 L81 102 L99 102 L87 138 L117 90 L99 90 Z" fill="url(#bolt2)"/>
  <circle cx="96" cy="114" r="7.5" fill="#94a3b8"/>
  <rect x="93" y="114" width="6" height="12" rx="3" fill="#94a3b8"/>
</svg>
