<svg xmlns="http://www.w3.org/2000/svg" viewBox="0 0 1200 600" width="1200" height="600">
  <defs>
    <linearGradient id="tbg" x1="0%" y1="0%" x2="100%" y2="100%">
      <stop offset="0%" style="stop-color:#0f172a"/>
      <stop offset="100%" style="stop-color:#1e293b"/>
    </linearGradient>
    <linearGradient id="tshield" x1="0%" y1="0%" x2="100%" y2="100%">
      <stop offset="0%" style="stop-color:#6366f1"/>
      <stop offset="100%" style="stop-color:#4f46e5"/>
    </linearGradient>
    <linearGradient id="tbolt" x1="0%" y1="0%" x2="0%" y2="100%">
      <stop offset="0%" style="stop-color:#fbbf24"/>
      <stop offset="100%" style="stop-color:#f59e0b"/>
    </linearGradient>
  </defs>
  <rect width="1200" height="600" fill="url(#tbg)"/>
  <rect x="0" y="0" width="1200" height="4" fill="#6366f1"/>
  <!-- Shield centered -->
  <g transform="translate(440, 80)">
    <path d="M160 0 L320 80 L320 200 C320 280 250 340 160 370 C70 340 0 280 0 200 L0 80 Z" fill="url(#tshield)" opacity="0.15"/>
    <path d="M160 30 L296 100 L296 192 C296 264 236 316 160 340 C84 316 24 264 24 192 L24 100 Z" fill="url(#tbg)" opacity="0.5"/>
  </g>
  <!-- Title centered -->
  <text x="600" y="240" font-family="system-ui, -apple-system, sans-serif" font-size="80" font-weight="800" fill="#f8fafc" text-anchor="middle">CyberCEN</text>
  <text x="600" y="300" font-family="system-ui, sans-serif" font-size="32" fill="#94a3b8" text-anchor="middle">Autoevaluacion de Ciberseguridad</text>
  <rect x="560" y="320" width="80" height="3" rx="1.5" fill="#6366f1"/>
  <text x="600" y="365" font-family="system-ui, sans-serif" font-size="24" fill="#64748b" text-anchor="middle">Estandar CEN | NERC CIP | Sector Electrico Chile</text>
  <!-- Badges -->
  <g transform="translate(200, 420)">
    <rect x="0" y="0" width="180" height="44" rx="22" fill="#1e293b" stroke="#334155" stroke-width="1"/>
    <text x="90" y="28" font-family="system-ui, sans-serif" font-size="15" fill="#6366f1" text-anchor="middle" font-weight="600">12 Dominios</text>
    <rect x="200" y="0" width="200" height="44" rx="22" fill="#1e293b" stroke="#334155" stroke-width="1"/>
    <text x="300" y="28" font-family="system-ui, sans-serif" font-size="15" fill="#22c55e" text-anchor="middle" font-weight="600">120 Controles</text>
    <rect x="420" y="0" width="200" height="44" rx="22" fill="#1e293b" stroke="#334155" stroke-width="1"/>
    <text x="520" y="28" font-family="system-ui, sans-serif" font-size="15" fill="#f59e0b" text-anchor="middle" font-weight="600">Analisis Riesgo</text>
    <rect x="640" y="0" width="180" height="44" rx="22" fill="#1e293b" stroke="#334155" stroke-width="1"/>
    <text x="730" y="28" font-family="system-ui, sans-serif" font-size="15" fill="#ef4444" text-anchor="middle" font-weight="600">Reporte PDF</text>
  </g>
  <!-- TTPSEC -->
  <text x="600" y="540" font-family="system-ui, sans-serif" font-size="18" fill="#475569" text-anchor="middle" font-weight="600">TTPSEC | Ciberseguridad Sector Energetico</text>
  <rect x="0" y="596" width="1200" height="4" fill="#6366f1"/>
</svg>
