<svg xmlns="http://www.w3.org/2000/svg" viewBox="0 0 1200 600" width="1200" height="600">
  <defs>
    <linearGradient id="bg" x1="0%" y1="0%" x2="100%" y2="100%">
      <stop offset="0%" style="stop-color:#f8fafc"/>
      <stop offset="100%" style="stop-color:#e2e8f0"/>
    </linearGradient>
    <linearGradient id="blue" x1="0%" y1="0%" x2="100%" y2="100%">
      <stop offset="0%" style="stop-color:#2563eb"/>
      <stop offset="100%" style="stop-color:#4338ca"/>
    </linearGradient>
    <filter id="shadow">
      <feDropShadow dx="0" dy="3" stdDeviation="8" flood-color="#1e3a8a" flood-opacity="0.1"/>
    </filter>
  </defs>

  <!-- Background -->
  <rect width="1200" height="600" fill="url(#bg)"/>

  <!-- Top accent -->
  <rect x="0" y="0" width="1200" height="5" fill="url(#blue)"/>

  <!-- Decorative circles -->
  <circle cx="1000" cy="150" r="200" fill="#dbeafe" opacity="0.2"/>
  <circle cx="1080" cy="100" r="130" fill="#bfdbfe" opacity="0.15"/>

  <!-- Shield icon -->
  <g transform="translate(90, 120)" filter="url(#shadow)">
    <rect x="0" y="0" width="110" height="110" rx="22" fill="url(#blue)"/>
    <g transform="translate(20, 14)">
      <path d="M35 0 L70 18 L70 45 C70 62 54 75 35 82 C16 75 0 62 0 45 L0 18 Z" fill="white" opacity="0.95"/>
      <path d="M40 13 L30 33 L37 33 L32 50 L44 28 L37 28 Z" fill="#fbbf24" opacity="0.9"/>
    </g>
  </g>

  <!-- Title -->
  <text x="230" y="175" font-family="system-ui, -apple-system, sans-serif" font-size="72" font-weight="900" fill="#1e3a8a" letter-spacing="-2">CyberCEN</text>
  <text x="230" y="215" font-family="system-ui, sans-serif" font-size="22" fill="#64748b" font-weight="500">by TTPSEC SPA</text>

  <!-- Divider -->
  <rect x="90" y="260" width="1020" height="1" fill="#e2e8f0"/>

  <!-- Description -->
  <text x="90" y="305" font-family="system-ui, sans-serif" font-size="28" fill="#0f172a" font-weight="700">Autoevaluacion de Ciberseguridad para el Sector Electrico</text>
  <text x="90" y="340" font-family="system-ui, sans-serif" font-size="20" fill="#475569">Estandar del Coordinador Electrico Nacional | 12 Dominios NERC CIP</text>

  <!-- Badges -->
  <g transform="translate(90, 380)">
    <rect x="0" y="0" width="190" height="40" rx="12" fill="white" stroke="#e2e8f0" stroke-width="1" filter="url(#shadow)"/>
    <text x="95" y="26" font-family="system-ui, sans-serif" font-size="14" fill="#2563eb" text-anchor="middle" font-weight="700">12 Dominios CIP</text>

    <rect x="210" y="0" width="210" height="40" rx="12" fill="white" stroke="#e2e8f0" stroke-width="1" filter="url(#shadow)"/>
    <text x="315" y="26" font-family="system-ui, sans-serif" font-size="14" fill="#059669" text-anchor="middle" font-weight="700">Analisis de Riesgo</text>

    <rect x="440" y="0" width="190" height="40" rx="12" fill="white" stroke="#e2e8f0" stroke-width="1" filter="url(#shadow)"/>
    <text x="535" y="26" font-family="system-ui, sans-serif" font-size="14" fill="#d97706" text-anchor="middle" font-weight="700">Plan de Accion</text>

    <rect x="650" y="0" width="180" height="40" rx="12" fill="white" stroke="#e2e8f0" stroke-width="1" filter="url(#shadow)"/>
    <text x="740" y="26" font-family="system-ui, sans-serif" font-size="14" fill="#dc2626" text-anchor="middle" font-weight="700">Reporte PDF</text>
  </g>

  <!-- Privacy badges -->
  <g transform="translate(90, 450)">
    <rect x="0" y="0" width="100" height="26" rx="13" fill="#ecfdf5" stroke="#a7f3d0" stroke-width="1"/>
    <text x="50" y="18" font-family="system-ui, sans-serif" font-size="10" fill="#047857" text-anchor="middle" font-weight="700">ANONIMO</text>
    <rect x="110" y="0" width="90" height="26" rx="13" fill="#dbeafe" stroke="#bfdbfe" stroke-width="1"/>
    <text x="155" y="18" font-family="system-ui, sans-serif" font-size="10" fill="#1d4ed8" text-anchor="middle" font-weight="700">SEGURO</text>
    <rect x="210" y="0" width="120" height="26" rx="13" fill="#f3e8ff" stroke="#e9d5ff" stroke-width="1"/>
    <text x="270" y="18" font-family="system-ui, sans-serif" font-size="10" fill="#7c3aed" text-anchor="middle" font-weight="700">SIN RASTREO</text>
    <rect x="340" y="0" width="110" height="26" rx="13" fill="#fffbeb" stroke="#fde68a" stroke-width="1"/>
    <text x="395" y="18" font-family="system-ui, sans-serif" font-size="10" fill="#b45309" text-anchor="middle" font-weight="700">ACADEMICO</text>
  </g>

  <!-- Bottom bar -->
  <rect x="0" y="530" width="1200" height="70" fill="white" opacity="0.8"/>
  <rect x="0" y="530" width="1200" height="1" fill="#e2e8f0"/>
  <text x="90" y="570" font-family="system-ui, sans-serif" font-size="18" fill="#1e3a8a" font-weight="900">TTPSEC</text>
  <text x="163" y="570" font-family="system-ui, sans-serif" font-size="13" fill="#94a3b8">|</text>
  <text x="178" y="570" font-family="system-ui, sans-serif" font-size="13" fill="#64748b">Software para el bien comun</text>
  <text x="1110" y="565" font-family="system-ui, sans-serif" font-size="11" fill="#94a3b8" text-anchor="end">MIT License</text>
  <text x="1110" y="582" font-family="ui-monospace, monospace" font-size="12" fill="#2563eb" text-anchor="end" font-weight="600">ttpsecspa.github.io/cybercen</text>

  <!-- Bottom accent -->
  <rect x="0" y="595" width="1200" height="5" fill="url(#blue)"/>
</svg>
